<svg xmlns="http://www.w3.org/2000/svg" version="1.1" xmlns:xlink="http://www.w3.org/1999/xlink" xmlns:svgjs="http://svgjs.dev/svgjs" width="1500" height="1500" viewBox="0 0 1500 1500"><rect width="1500" height="1500" fill="#3f3d56"></rect><g transform="matrix(0.6666666666666666,0,0,0.6666666666666666,249.39393939393938,438.58569500674764)"><svg viewBox="0 0 396 247" data-background-color="#3f3d56" preserveAspectRatio="xMidYMid meet" height="935" width="1500" xmlns="http://www.w3.org/2000/svg" xmlns:xlink="http://www.w3.org/1999/xlink"><g id="tight-bounds" transform="matrix(1,0,0,1,0.2400000000000091,-0.09999999999999432)"><svg viewBox="0 0 395.52 247.2" height="247.2" width="395.52"><g><svg></svg></g><g><svg viewBox="0 0 395.52 247.2" height="247.2" width="395.52"><g transform="matrix(1,0,0,1,75.54432000000001,81.54431540339368)"><svg viewBox="0 0 244.43135999999996 84.11136919321261" height="84.11136919321261" width="244.43135999999996"><g><svg viewBox="0 0 244.43136 84.11136919321262" height="84.11136919321261" width="244.43135999999996"><g transform="matrix(1,0,0,1,0,51.98420054218315)"><svg viewBox="0 0 244.43136 32.127168651029464" height="32.127168651029464" width="244.43136"><g id="textblocktransform"><svg viewBox="0 0 244.43136 32.127168651029464" height="32.127168651029464" width="244.43136" id="textblock"><g><svg viewBox="0 0 244.43136 32.127168651029464" height="32.127168651029464" width="244.43136"><g transform="matrix(1,0,0,1,0,0)"><svg width="244.43136" viewBox="3.91 -38.38 386.3174561403509 50.78" height="32.127168651029464" data-palette-color="#f9a826"><path d="M22.22 0L9.94 0Q7.42 0 6.12-0.63 4.81-1.27 4.36-2.71 3.91-4.15 3.91-6.54L3.91-6.54 3.91-28.47Q3.91-30.91 4.36-32.34 4.81-33.76 6.12-34.39 7.42-35.01 9.94-35.01L9.94-35.01 21.41-35.01Q22-35.01 22.29-34.81L22.29-34.81Q22.92-34.38 23.61-33.76 24.29-33.15 25.05-32.3L25.05-32.3Q25.29-31.98 25.29-31.79L25.29-31.79Q25.29-31.57 25.05-31.3L25.05-31.3Q24.29-30.44 23.61-29.83 22.92-29.22 22.29-28.78L22.29-28.78Q21.95-28.59 21.41-28.59L21.41-28.59 14.58-28.59Q12.96-28.59 12.38-27.91 11.79-27.22 11.79-25.56L11.79-25.56 11.79-20.83 20.56-20.83Q21.14-20.83 21.44-20.63L21.44-20.63Q22.07-20.19 22.75-19.58 23.44-18.97 24.19-18.12L24.19-18.12Q24.44-17.8 24.44-17.6L24.44-17.6Q24.44-17.38 24.19-17.11L24.19-17.11Q23.44-16.26 22.75-15.65 22.07-15.04 21.44-14.6L21.44-14.6Q21.09-14.4 20.56-14.4L20.56-14.4 11.79-14.4 11.79-9.47Q11.79-7.84 12.38-7.13 12.96-6.42 14.58-6.42L14.58-6.42 22.22-6.42Q22.8-6.42 23.1-6.23L23.1-6.23Q23.73-5.79 24.41-5.18 25.1-4.57 25.85-3.71L25.85-3.71Q26.1-3.39 26.1-3.2L26.1-3.2Q26.1-2.98 25.85-2.71L25.85-2.71Q25.1-1.86 24.41-1.25 23.73-0.63 23.1-0.2L23.1-0.2Q22.75 0 22.22 0L22.22 0ZM52.98-22.44L52.98-22.44Q53.88-23.54 55.77-24.57 57.66-25.61 61.11-25.61L61.11-25.61Q65.99-25.61 68.16-23.1 70.33-20.58 70.33-15.55L70.33-15.55 70.33-1.29Q70.33-0.56 70.03-0.28 69.72 0 68.99 0L68.99 0 63.96 0Q63.23 0 62.92-0.28 62.62-0.56 62.62-1.29L62.62-1.29 62.62-14.28Q62.62-17.02 61.62-18.2 60.62-19.38 58.62-19.38L58.62-19.38Q56.83-19.38 55.8-18.59 54.76-17.8 54.32-16.46L54.32-16.46 54.32-1.29Q54.32-0.56 54.01-0.28 53.71 0 52.98 0L52.98 0 47.95 0Q47.21 0 46.91-0.28 46.6-0.56 46.6-1.29L46.6-1.29 46.6-14.28Q46.6-16.94 45.51-18.16 44.41-19.38 42.62-19.38L42.62-19.38Q40.94-19.38 39.91-18.55 38.89-17.72 38.33-16.46L38.33-16.46 38.33-1.29Q38.33-0.56 38.02-0.28 37.72 0 36.98 0L36.98 0 31.96 0Q31.22 0 30.92-0.28 30.61-0.56 30.61-1.29L30.61-1.29 30.61-21.75Q30.61-22.34 30.86-22.66L30.86-22.66Q31.37-23.34 32.09-24.05 32.81-24.76 33.86-25.56L33.86-25.56Q34.18-25.81 34.47-25.81L34.47-25.81Q34.74-25.81 35.08-25.56L35.08-25.56Q36.11-24.76 36.84-24.02 37.57-23.29 38.13-22.51L38.13-22.51 38.25-22.51Q39.08-23.56 40.84-24.58 42.6-25.61 45.87-25.61L45.87-25.61Q49-25.61 50.51-24.67 52.02-23.73 52.98-22.44ZM92.48-25.61L92.48-25.61Q96.04-25.61 98.35-24.01 100.65-22.41 101.79-19.62 102.92-16.82 102.92-13.21L102.92-13.21Q102.92-9.3 101.59-6.18 100.26-3.05 97.68-1.22 95.09 0.61 91.25 0.61L91.25 0.61Q89.28 0.61 88 0.16 86.71-0.29 85.94-0.92 85.18-1.54 84.74-2.05L84.74-2.05 84.64-2.05 84.64 8.35Q84.64 8.94 84.39 9.25L84.39 9.25Q83.37 10.6 81.39 12.16L81.39 12.16Q81.05 12.4 80.78 12.4L80.78 12.4Q80.49 12.4 80.17 12.16L80.17 12.16Q79.12 11.35 78.4 10.64 77.68 9.94 77.17 9.25L77.17 9.25Q76.92 8.94 76.92 8.35L76.92 8.35 76.92-21.75Q76.92-22.34 77.17-22.66L77.17-22.66Q77.68-23.34 78.4-24.05 79.12-24.76 80.17-25.56L80.17-25.56Q80.49-25.81 80.83-25.81L80.83-25.81Q81.15-25.81 81.49-25.56L81.49-25.56Q82.51-24.76 83.25-24.02 83.98-23.29 84.54-22.51L84.54-22.51 84.66-22.51Q85.08-23.02 85.93-23.75 86.79-24.49 88.36-25.05 89.94-25.61 92.48-25.61ZM89.47-5.62L89.47-5.62Q92.11-5.62 93.56-7.46 95.01-9.3 95.01-12.79L95.01-12.79Q95.01-19.38 89.59-19.38L89.59-19.38Q87.3-19.38 86.2-18.44 85.1-17.5 84.64-16.46L84.64-16.46 84.64-11.16Q84.64-8.79 85.86-7.2 87.08-5.62 89.47-5.62ZM116.47-1.83L111.37 0.51Q110.86 0.73 110.64 0.73L110.64 0.73Q110.42 0.73 110.17 0.56L110.17 0.56Q109.61 0.17 108.89-1.35 108.17-2.88 108.17-6.05L108.17-6.05 108.17-34.33Q108.17-34.91 108.42-35.23L108.42-35.23Q109.44-36.57 111.42-38.13L111.42-38.13Q111.76-38.38 112.03-38.38L112.03-38.38Q112.35-38.38 112.64-38.13L112.64-38.13Q113.69-37.33 114.41-36.62 115.13-35.91 115.64-35.23L115.64-35.23Q115.89-34.91 115.89-34.33L115.89-34.33 115.89-7.54Q115.89-5.93 116.15-4.8 116.42-3.66 116.79-2.98L116.79-2.98Q117.2-2.17 116.47-1.83L116.47-1.83ZM134.56 0.61L134.56 0.61Q128.41 0.61 124.82-2.66 121.23-5.93 121.23-12.4L121.23-12.4Q121.23-19.04 124.95-22.33 128.68-25.61 134.9-25.61L134.9-25.61Q140.91-25.61 144.52-22.38 148.13-19.14 148.13-12.84L148.13-12.84Q148.13-6.27 144.52-2.83 140.91 0.61 134.56 0.61ZM134.8-5.3L134.8-5.3Q137.49-5.3 138.86-6.97 140.22-8.64 140.22-12.7L140.22-12.7Q140.22-16.55 138.84-18.13 137.47-19.7 134.76-19.7L134.76-19.7Q132.14-19.7 130.64-18.01 129.14-16.31 129.14-12.5L129.14-12.5Q129.14-8.52 130.57-6.91 132-5.3 134.8-5.3ZM154.16 11.74L154.16 11.74Q153.26 11.74 152.8 11.56 152.33 11.38 152.01 11.11L152.01 11.11Q151.38 10.5 150.65 9.4L150.65 9.4Q150.48 9.13 150.28 8.78 150.09 8.42 150.09 8.18L150.09 8.18Q150.09 7.91 150.21 7.69 150.33 7.47 150.5 7.28L150.5 7.28Q150.89 6.76 151.45 6.21 152.01 5.66 152.4 5.35L152.4 5.35Q152.67 5.13 152.84 5.07 153.01 5 153.14 5L153.14 5Q153.26 5 153.5 5.05 153.75 5.1 154.24 5.1L154.24 5.1Q155.92 5.1 157.75 4 159.58 2.91 161.36-0.12L161.36-0.12Q159.51-1.83 157.71-4.41 155.92-6.98 154.48-10 153.04-13.01 152.17-16.02 151.31-19.02 151.31-21.56L151.31-21.56Q151.31-22.09 151.57-22.41L151.57-22.41Q152.7-23.8 154.77-25.32L154.77-25.32Q155.14-25.56 155.43-25.56L155.43-25.56Q155.75-25.56 156.09-25.32L156.09-25.32Q157.21-24.51 157.98-23.8 158.75-23.1 159.29-22.41L159.29-22.41Q159.56-22.09 159.56-21.51L159.56-21.51 159.56-21.61Q159.56-19.68 160.02-17.53 160.49-15.38 161.29-13.34 162.1-11.3 163.1-9.66 164.1-8.01 165.17-7.03L165.17-7.03 165.3-7.03Q165.78-7.96 166.38-9.7 166.98-11.45 167.52-13.59 168.05-15.72 168.4-17.83 168.74-19.95 168.74-21.58L168.74-21.58 168.74-21.51Q168.74-22.09 168.98-22.41L168.98-22.41Q169.54-23.1 170.3-23.8 171.06-24.51 172.13-25.32L172.13-25.32Q172.47-25.56 172.77-25.56L172.77-25.56Q173.11-25.56 173.4-25.32L173.4-25.32Q174.5-24.51 175.26-23.8 176.01-23.1 176.55-22.41L176.55-22.41Q176.79-22.09 176.79-21.53L176.79-21.53Q176.77-19.31 175.94-15.73 175.11-12.16 173.52-7.98 171.94-3.81 169.67 0.2L169.67 0.2Q166.27 6.23 162.34 8.98 158.41 11.74 154.16 11.74ZM176.79-21.58L176.79-21.58 176.79-21.51 176.79-21.53Q176.79-21.56 176.79-21.58ZM151.31-21.51L151.31-21.58 151.31-21.56 151.31-21.51ZM193.52 0.61L193.52 0.61Q189.39 0.61 186.34-0.72 183.29-2.05 181.6-4.86 179.92-7.67 179.92-12.11L179.92-12.11Q179.92-18.77 183.33-22.19 186.75-25.61 192.42-25.61L192.42-25.61Q196.1-25.61 198.65-24.29 201.21-22.97 202.54-20.65 203.87-18.33 203.87-15.36L203.87-15.36Q203.87-12.45 202.38-11.3 200.89-10.16 198.03-10.16L198.03-10.16 187.56-10.16Q187.75-7.64 189.4-6.32 191.05-5 193.88-5L193.88-5Q196.13-5 197.48-5.68 198.84-6.35 199.37-6.74L199.37-6.74Q199.84-7.08 200.42-7.06L200.42-7.06Q200.89-7.06 201.76-6.87 202.62-6.69 203.48-6.2L203.48-6.2Q204.09-5.88 204.09-5.32L204.09-5.32Q204.09-5 203.96-4.42L203.96-4.42Q203.89-4.08 203.72-3.43 203.55-2.78 203.28-2.22L203.28-2.22Q203.13-1.95 202.82-1.71L202.82-1.71Q202.33-1.37 201.24-0.81 200.16-0.24 198.28 0.18 196.4 0.61 193.52 0.61ZM187.51-15.16L187.51-15.16 195.47-15.16Q196.71-15.16 196.71-16.31L196.71-16.31Q196.71-18.04 195.63-19.23 194.54-20.41 192.37-20.41L192.37-20.41Q190-20.41 188.89-18.9 187.78-17.38 187.51-15.16ZM221.49 0.61L221.49 0.61Q217.37 0.61 214.31-0.72 211.26-2.05 209.58-4.86 207.89-7.67 207.89-12.11L207.89-12.11Q207.89-18.77 211.31-22.19 214.73-25.61 220.39-25.61L220.39-25.61Q224.08-25.61 226.63-24.29 229.18-22.97 230.51-20.65 231.84-18.33 231.84-15.36L231.84-15.36Q231.84-12.45 230.35-11.3 228.86-10.16 226.01-10.16L226.01-10.16 215.53-10.16Q215.73-7.64 217.38-6.32 219.03-5 221.86-5L221.86-5Q224.1-5 225.46-5.68 226.81-6.35 227.35-6.74L227.35-6.74Q227.81-7.08 228.4-7.06L228.4-7.06Q228.86-7.06 229.73-6.87 230.6-6.69 231.45-6.2L231.45-6.2Q232.06-5.88 232.06-5.32L232.06-5.32Q232.06-5 231.94-4.42L231.94-4.42Q231.87-4.08 231.7-3.43 231.53-2.78 231.26-2.22L231.26-2.22Q231.11-1.95 230.79-1.71L230.79-1.71Q230.3-1.37 229.22-0.81 228.13-0.24 226.25 0.18 224.37 0.61 221.49 0.61ZM215.49-15.16L215.49-15.16 223.44-15.16Q224.69-15.16 224.69-16.31L224.69-16.31Q224.69-18.04 223.6-19.23 222.52-20.41 220.34-20.41L220.34-20.41Q217.98-20.41 216.86-18.9 215.75-17.38 215.49-15.16ZM266.55-25.61L266.55-25.61Q270.12-25.61 272.43-24.01 274.73-22.41 275.87-19.62 277-16.82 277-13.21L277-13.21Q277-9.3 275.67-6.18 274.34-3.05 271.75-1.22 269.17 0.61 265.33 0.61L265.33 0.61Q263.36 0.61 262.07 0.16 260.79-0.29 260.02-0.92 259.25-1.54 258.82-2.05L258.82-2.05 258.72-2.05 258.72 8.35Q258.72 8.94 258.47 9.25L258.47 9.25Q257.45 10.6 255.47 12.16L255.47 12.16Q255.13 12.4 254.86 12.4L254.86 12.4Q254.57 12.4 254.25 12.16L254.25 12.16Q253.2 11.35 252.48 10.64 251.76 9.94 251.25 9.25L251.25 9.25Q251 8.94 251 8.35L251 8.35 251-21.75Q251-22.34 251.25-22.66L251.25-22.66Q251.76-23.34 252.48-24.05 253.2-24.76 254.25-25.56L254.25-25.56Q254.57-25.81 254.91-25.81L254.91-25.81Q255.23-25.81 255.57-25.56L255.57-25.56Q256.59-24.76 257.33-24.02 258.06-23.29 258.62-22.51L258.62-22.51 258.74-22.51Q259.16-23.02 260.01-23.75 260.87-24.49 262.44-25.05 264.02-25.61 266.55-25.61ZM263.55-5.62L263.55-5.62Q266.19-5.62 267.64-7.46 269.09-9.3 269.09-12.79L269.09-12.79Q269.09-19.38 263.67-19.38L263.67-19.38Q261.38-19.38 260.28-18.44 259.18-17.5 258.72-16.46L258.72-16.46 258.72-11.16Q258.72-8.79 259.94-7.2 261.16-5.62 263.55-5.62ZM294.24 0.61L294.24 0.61Q288.09 0.61 284.5-2.66 280.91-5.93 280.91-12.4L280.91-12.4Q280.91-19.04 284.63-22.33 288.35-25.61 294.58-25.61L294.58-25.61Q300.59-25.61 304.2-22.38 307.81-19.14 307.81-12.84L307.81-12.84Q307.81-6.27 304.2-2.83 300.59 0.61 294.24 0.61ZM294.48-5.3L294.48-5.3Q297.17-5.3 298.53-6.97 299.9-8.64 299.9-12.7L299.9-12.7Q299.9-16.55 298.52-18.13 297.14-19.7 294.43-19.7L294.43-19.7Q291.82-19.7 290.32-18.01 288.82-16.31 288.82-12.5L288.82-12.5Q288.82-8.52 290.25-6.91 291.67-5.3 294.48-5.3ZM320.77-22.17L320.77-20.36 320.87-20.36Q322.7-25.44 327.46-25.44L327.46-25.44Q328.07-25.44 328.46-25.38 328.85-25.32 329-25.27L329-25.27Q329.37-25.15 329.37-24.71L329.37-24.71 329.37-18.82Q329.37-18.07 328.49-18.41L328.49-18.41Q328.2-18.53 327.65-18.66 327.1-18.8 326.12-18.8L326.12-18.8Q323.61-18.8 322.19-16.96 320.77-15.11 320.77-11.94L320.77-11.94 320.77-1.29Q320.77-0.56 320.47-0.28 320.16 0 319.43 0L319.43 0 314.4 0Q313.67 0 313.36-0.28 313.06-0.56 313.06-1.29L313.06-1.29 313.06-21.75Q313.06-22.34 313.3-22.66L313.3-22.66Q313.82-23.34 314.54-24.05 315.26-24.76 316.31-25.56L316.31-25.56Q316.5-25.71 316.7-25.76 316.89-25.81 317.04-25.81L317.04-25.81Q317.38-25.81 317.72-25.56L317.72-25.56Q319.75-23.97 320.55-22.85L320.55-22.85Q320.77-22.56 320.77-22.17L320.77-22.17ZM342.89 0.61L342.89 0.61Q334.74 0.61 334.74-7.86L334.74-7.86 334.74-19.31 331.98-19.31Q331.24-19.31 330.96-19.62 330.68-19.92 330.68-20.65L330.68-20.65 330.68-23.66Q330.68-24.39 330.96-24.69 331.24-25 331.98-25L331.98-25 334.74-25 334.74-28.93Q334.74-29.52 334.98-29.83L334.98-29.83Q336.01-31.18 337.98-32.74L337.98-32.74Q338.32-32.98 338.59-32.98L338.59-32.98Q338.89-32.98 339.18-32.74L339.18-32.74Q340.23-31.93 340.95-31.23 341.67-30.52 342.18-29.83L342.18-29.83Q342.43-29.52 342.43-28.93L342.43-28.93 342.43-25 346.75-25Q347.48-25 347.76-24.69 348.04-24.39 348.04-23.66L348.04-23.66 348.04-20.65Q348.04-19.92 347.76-19.62 347.48-19.31 346.75-19.31L346.75-19.31 342.43-19.31 342.43-9.2Q342.43-5.3 345.26-5.3L345.26-5.3Q345.7-5.3 346.06-5.38 346.43-5.47 346.7-5.57L346.7-5.57Q347.21-5.76 347.42-5.71 347.63-5.66 347.8-5.18L347.8-5.18 349.21-1.39Q349.43-0.78 348.92-0.51L348.92-0.51Q348.55-0.34 347.15 0.13 345.75 0.61 342.89 0.61ZM359.76 0.61L359.76 0.61Q356.17 0.61 354.06-1.4 351.95-3.42 351.95-6.96L351.95-6.96Q351.95-8.79 352.62-10.36 353.29-11.94 354.96-13.15 356.63-14.36 359.65-15.09 362.66-15.82 367.35-15.94L367.35-15.94Q367.35-18.16 366.24-19.14 365.13-20.12 362.91-20.12L362.91-20.12Q360.91-20.12 359.64-19.43 358.37-18.75 358.05-18.51L358.05-18.51Q357.71-18.21 357.22-18.29L357.22-18.29Q356.56-18.38 355.81-18.63 355.07-18.87 354.22-19.19L354.22-19.19Q354.09-19.24 353.95-19.35 353.8-19.46 353.78-19.68L353.78-19.68Q353.78-19.8 353.8-19.98 353.82-20.17 353.92-20.65L353.92-20.65Q354.02-21.14 354.22-21.86 354.41-22.58 354.58-22.97L354.58-22.97Q354.8-23.39 355.31-23.75L355.31-23.75Q355.73-24.1 357.83-24.85 359.93-25.61 363.91-25.61L363.91-25.61Q374.87-25.61 374.87-14.94L374.87-14.94 374.87-1.12Q374.87-0.66 374.61-0.33 374.36 0 373.75 0L373.75 0 370.08 0Q369.69 0 369.39-0.11 369.08-0.22 368.82-0.54L368.82-0.54 367.3-2.49 367.13-2.49Q366.01-0.85 364.12-0.12 362.22 0.61 359.76 0.61ZM362.44-5.05L362.44-5.05Q364.69-5.05 365.84-6.2 366.98-7.35 367.3-8.57L367.3-8.57 367.3-11.28Q363.91-11.28 362.21-10.75 360.51-10.23 359.95-9.39 359.39-8.54 359.39-7.57L359.39-7.57Q359.39-6.15 360.27-5.6 361.15-5.05 362.44-5.05ZM389.76-1.83L384.66 0.51Q384.14 0.73 383.92 0.73L383.92 0.73Q383.71 0.73 383.46 0.56L383.46 0.56Q382.9 0.17 382.18-1.35 381.46-2.88 381.46-6.05L381.46-6.05 381.46-34.33Q381.46-34.91 381.7-35.23L381.7-35.23Q382.73-36.57 384.71-38.13L384.71-38.13Q385.05-38.38 385.32-38.38L385.32-38.38Q385.63-38.38 385.93-38.13L385.93-38.13Q386.98-37.33 387.7-36.62 388.42-35.91 388.93-35.23L388.93-35.23Q389.17-34.91 389.17-34.33L389.17-34.33 389.17-7.54Q389.17-5.93 389.44-4.8 389.71-3.66 390.08-2.98L390.08-2.98Q390.49-2.17 389.76-1.83L389.76-1.83Z" opacity="1" transform="matrix(1,0,0,1,0,0)" fill="#f9a826" class="wordmark-text-0" data-fill-palette-color="primary" id="text-0"></path></svg></g></svg></g></svg></g></svg></g><g transform="matrix(1,0,0,1,100.89885795316516,0)"><svg viewBox="0 0 42.633644093669695 44.39974707572272" height="44.39974707572272" width="42.633644093669695"><g><svg xmlns="http://www.w3.org/2000/svg" xmlns:xlink="http://www.w3.org/1999/xlink" version="1.1" x="0" y="0" viewBox="10.534000000000006 6.6157808754426926 192.449 200.4212191245573" enable-background="new 0 0 213.768 213.043" xml:space="preserve" height="44.39974707572272" width="42.633644093669695" class="icon-icon-0" data-fill-palette-color="accent" id="icon-0"><g fill="#f9a826" data-fill-palette-color="accent"><circle fill="#f9a826" cx="39.854" cy="83.056" r="18" data-fill-palette-color="accent"></circle><path fill="#f9a826" d="M44.75 103.884l-2.717 3.579 4.325 24.917-5.903 7.462-5.998-6.979 4.253-25.404-2.749-3.745c-14.352 2.174-25.427 16.177-25.427 33.139 0 2.218 0.194 4.382 0.554 6.478h57.528c0.36-2.096 0.555-4.26 0.555-6.478C69.173 120.286 58.61 106.543 44.75 103.884z" data-fill-palette-color="accent"></path><path fill="#f9a826" d="M180.274 35.083l-0.024-1.119c1.288-0.027 2.56-0.242 3.775-0.638l0.348 1.063C183.051 34.819 181.673 35.053 180.274 35.083zM178.49 35.01c-1.389-0.142-2.744-0.488-4.029-1.026l0.434-1.031c1.182 0.496 2.431 0.813 3.711 0.945L178.49 35.01zM186.032 33.73l-0.476-1.011c1.159-0.548 2.23-1.262 3.188-2.125l0.748 0.831C188.455 32.36 187.291 33.136 186.032 33.73zM172.858 33.189c-1.206-0.696-2.302-1.563-3.259-2.579l0.813-0.766c0.882 0.935 1.894 1.736 3.005 2.377L172.858 33.189zM190.742 30.148l-0.847-0.73c0.841-0.975 1.532-2.064 2.054-3.234l1.021 0.456C192.406 27.909 191.655 29.09 190.742 30.148zM168.458 29.236c-0.823-1.127-1.475-2.367-1.934-3.679l1.055-0.37c0.424 1.211 1.023 2.351 1.782 3.39L168.458 29.236zM193.594 24.963l-1.071-0.323c0.368-1.224 0.557-2.499 0.557-3.79v-0.058h1.117v0.058C194.197 22.25 193.995 23.635 193.594 24.963zM166.041 23.835c-0.208-0.974-0.314-1.978-0.314-2.985 0-0.385 0.016-0.776 0.048-1.161l1.114 0.089c-0.028 0.356-0.043 0.716-0.043 1.072 0 0.928 0.098 1.854 0.288 2.751L166.041 23.835zM192.97 19.152c-0.165-1.275-0.517-2.515-1.043-3.684l1.021-0.46c0.572 1.271 0.952 2.617 1.132 4.001L192.97 19.152zM167.124 18.149l-1.095-0.229c0.285-1.364 0.771-2.677 1.44-3.9l0.981 0.538C167.832 15.685 167.386 16.893 167.124 18.149zM191.159 14.014c-0.67-1.094-1.496-2.084-2.454-2.942l0.746-0.833c1.04 0.93 1.935 2.004 2.66 3.192L191.159 14.014zM169.33 13.166l-0.905-0.657c0.817-1.127 1.793-2.129 2.9-2.977l0.68 0.889C170.984 11.202 170.084 12.126 169.33 13.166zM187.411 10.052c-1.059-0.731-2.215-1.301-3.436-1.694l0.342-1.064c1.325 0.426 2.58 1.044 3.729 1.839L187.411 10.052zM173.372 9.507l-0.563-0.967c1.208-0.703 2.507-1.221 3.862-1.542l0.258 1.087C175.68 8.381 174.484 8.86 173.372 9.507zM182.38 7.956c-1.248-0.233-2.561-0.282-3.829-0.147l-0.119-1.112c1.376-0.148 2.798-0.093 4.153 0.159L182.38 7.956z" data-fill-palette-color="accent"></path><g fill="#f9a826" data-fill-palette-color="accent"><path fill="#f9a826" d="M181.527 41.489l-0.376-2.167 2.114-2.817 0.095-0.554 0.555 0.099c0.656 0.116 1.317 0.27 1.961 0.452l-0.306 1.076c-0.47-0.133-0.949-0.25-1.429-0.347l-1.806 2.38 0.294 1.688L181.527 41.489z" data-fill-palette-color="accent"></path><path fill="#f9a826" d="M183.773 54.428l-0.786-4.529 1.102-0.191 0.786 4.529L183.773 54.428zM182.65 47.958l-0.786-4.528 1.103-0.192 0.785 4.53L182.65 47.958z" data-fill-palette-color="accent"></path><polygon fill="#f9a826" points="184.219,60.083 183.342,59.389 184.401,58.051 184.109,56.368 185.21,56.178 185.589,58.352   " data-fill-palette-color="accent"></polygon><polygon fill="#f9a826" points="180.574,64.692 178.857,62.693 179.705,61.964 180.539,62.934 181.332,61.931 182.209,62.624       " data-fill-palette-color="accent"></polygon><polygon fill="#f9a826" points="176.898,60.414 175.452,58.729 175.819,56.542 176.922,56.726 176.641,58.398 177.747,59.683       " data-fill-palette-color="accent"></polygon><path fill="#f9a826" d="M177.155 55.34l-1.104-0.184 0.541-3.233 1.103 0.184L177.155 55.34zM177.927 50.722l-1.103-0.185 0.541-3.233 1.103 0.185L177.927 50.722zM178.701 46.104l-1.104-0.184 0.541-3.233 1.104 0.184L178.701 46.104z" data-fill-palette-color="accent"></path><path fill="#f9a826" d="M179.472 41.486l-1.103-0.186 0.285-1.697-1.78-2.424c-0.496 0.093-0.991 0.207-1.478 0.339l-0.294-1.079c0.646-0.177 1.309-0.32 1.967-0.431l0.545-0.09 0.091 0.501 2.13 2.901L179.472 41.486z" data-fill-palette-color="accent"></path><path fill="#f9a826" d="M157.801 62.724c-0.019-0.424-0.027-0.852-0.027-1.284 0-0.887 0.04-1.78 0.119-2.658l1.114 0.101c-0.077 0.845-0.116 1.706-0.116 2.558 0 0.415 0.01 0.826 0.027 1.235L157.801 62.724zM159.2 57.268l-1.106-0.165c0.195-1.302 0.48-2.599 0.853-3.853l1.071 0.317C159.662 54.771 159.387 56.016 159.2 57.268zM160.525 52.023l-1.052-0.382c0.451-1.242 0.993-2.456 1.612-3.606l0.986 0.531C161.477 49.668 160.957 50.832 160.525 52.023zM162.884 47.162l-0.947-0.592c0.704-1.127 1.494-2.198 2.35-3.182l0.843 0.733C164.315 45.061 163.559 46.085 162.884 47.162zM166.233 42.937l-0.792-0.791c0.943-0.944 1.961-1.805 3.026-2.558l0.646 0.914C168.099 41.218 167.13 42.037 166.233 42.937zM170.465 39.623l-0.572-0.961c1.147-0.684 2.353-1.258 3.585-1.707l0.383 1.052C172.695 38.431 171.553 38.975 170.465 39.623z" data-fill-palette-color="accent"></path><path fill="#f9a826" d="M160.708 66.871h-2.429l-0.08-0.465c-0.112-0.649-0.202-1.314-0.271-1.975l1.111-0.115c0.051 0.479 0.112 0.961 0.186 1.436h1.483V66.871z" data-fill-palette-color="accent"></path><path fill="#f9a826" d="M198.433 66.871h-3.772v-1.119h3.772V66.871zM193.042 66.871h-3.771v-1.119h3.771V66.871zM187.655 66.871h-3.772v-1.119h3.772V66.871zM182.264 66.871h-3.772v-1.119h3.772V66.871zM176.875 66.871h-3.772v-1.119h3.772V66.871zM171.486 66.871h-3.772v-1.119h3.772V66.871zM166.096 66.871h-3.772v-1.119h3.772V66.871z" data-fill-palette-color="accent"></path><path fill="#f9a826" d="M202.478 66.871h-2.429v-1.119h1.481c0.075-0.479 0.137-0.961 0.186-1.436l1.113 0.115c-0.067 0.653-0.159 1.318-0.272 1.975L202.478 66.871z" data-fill-palette-color="accent"></path><path fill="#f9a826" d="M202.953 62.753l-1.117-0.05c0.019-0.417 0.028-0.839 0.028-1.262 0-0.835-0.037-1.677-0.11-2.506l1.114-0.098c0.076 0.861 0.115 1.737 0.115 2.604C202.983 61.881 202.973 62.318 202.953 62.753zM201.566 57.33c-0.184-1.245-0.453-2.483-0.804-3.68l1.074-0.313c0.363 1.245 0.645 2.535 0.835 3.83L201.566 57.33zM200.264 52.115c-0.426-1.188-0.938-2.345-1.521-3.441l0.988-0.525c0.608 1.143 1.142 2.351 1.587 3.587L200.264 52.115zM197.941 47.275c-0.663-1.074-1.407-2.096-2.212-3.035l0.849-0.728c0.843 0.984 1.621 2.051 2.314 3.175L197.941 47.275zM194.64 43.052c-0.887-0.899-1.842-1.721-2.843-2.441l0.652-0.908c1.053 0.757 2.057 1.621 2.986 2.565L194.64 43.052zM190.458 39.723c-1.074-0.654-2.203-1.205-3.354-1.64l0.393-1.045c1.218 0.458 2.41 1.04 3.545 1.731L190.458 39.723z" data-fill-palette-color="accent"></path></g><circle fill="#f9a826" cx="179.545" cy="161.717" r="14" data-fill-palette-color="accent"></circle><path fill="#f9a826" d="M183.226 177.378l-2.042 2.69 3.252 18.736-4.438 5.611-4.51-5.249 3.197-19.101-2.067-2.817c-10.79 1.634-19.118 12.163-19.118 24.918 0 1.668 0.146 3.295 0.418 4.871h43.257c0.271-1.576 0.417-3.203 0.417-4.871C201.591 189.712 193.649 179.377 183.226 177.378z" data-fill-palette-color="accent"></path><circle fill="#f9a826" cx="179.545" cy="91.318" r="14" data-fill-palette-color="accent"></circle><path fill="#f9a826" d="M183.226 106.98l-2.042 2.689 3.252 18.737-4.438 5.611-4.51-5.249 3.197-19.101-2.067-2.817c-10.79 1.634-19.118 12.163-19.118 24.918 0 1.666 0.146 3.295 0.418 4.871h43.257c0.271-1.576 0.417-3.205 0.417-4.871C201.591 119.314 193.649 108.98 183.226 106.98z" data-fill-palette-color="accent"></path><g fill="#f9a826" data-fill-palette-color="accent"><path fill="#f9a826" d="M81.488 79.045l-1.753-0.713c-0.638 1.571-1.23 3.187-1.762 4.802l1.798 0.591C80.288 82.149 80.866 80.576 81.488 79.045z" data-fill-palette-color="accent"></path><path fill="#f9a826" d="M88.512 65.874l-1.569-1.057c-0.946 1.406-1.858 2.863-2.709 4.333l1.638 0.947C86.701 68.664 87.588 67.244 88.512 65.874z" data-fill-palette-color="accent"></path><path fill="#f9a826" d="M93 59.903l-1.453-1.212c-1.086 1.303-2.142 2.66-3.138 4.031l1.531 1.112C90.911 62.495 91.939 61.172 93 59.903z" data-fill-palette-color="accent"></path><path fill="#f9a826" d="M98.073 54.425l-1.321-1.354c-1.213 1.184-2.402 2.423-3.534 3.688l1.41 1.261C95.73 56.787 96.889 55.578 98.073 54.425z" data-fill-palette-color="accent"></path><path fill="#f9a826" d="M79.035 86.102l-1.817-0.526c-0.472 1.631-0.894 3.296-1.252 4.95l1.849 0.401C78.165 89.314 78.575 87.69 79.035 86.102z" data-fill-palette-color="accent"></path><path fill="#f9a826" d="M77.33 93.366l-1.862-0.335c-0.3 1.662-0.548 3.362-0.736 5.053l1.88 0.208C76.795 96.645 77.037 94.987 77.33 93.366z" data-fill-palette-color="accent"></path><path fill="#f9a826" d="M84.66 72.276l-1.67-0.89c-0.799 1.5-1.557 3.045-2.248 4.59l1.726 0.773C83.142 75.246 83.88 73.739 84.66 72.276z" data-fill-palette-color="accent"></path><path fill="#f9a826" d="M137.478 34.7l-0.29-1.869c-1.677 0.26-3.363 0.583-5.018 0.957l0.419 1.845C134.199 35.267 135.844 34.954 137.478 34.7z" data-fill-palette-color="accent"></path><path fill="#f9a826" d="M144.903 33.935l-0.098-1.889c-1.694 0.088-3.405 0.234-5.088 0.436l0.227 1.879C141.582 34.163 143.251 34.021 144.903 33.935z" data-fill-palette-color="accent"></path><path fill="#f9a826" d="M130.172 36.223l-0.481-1.829c-1.64 0.432-3.287 0.927-4.892 1.472l0.606 1.79C126.971 37.127 128.575 36.645 130.172 36.223z" data-fill-palette-color="accent"></path><path fill="#f9a826" d="M116.237 41.486l-0.846-1.691c-1.516 0.76-3.022 1.581-4.481 2.443l0.961 1.628C113.292 43.028 114.762 42.228 116.237 41.486z" data-fill-palette-color="accent"></path><path fill="#f9a826" d="M123.063 38.497l-0.668-1.77c-1.584 0.598-3.167 1.259-4.708 1.967l0.789 1.718C119.978 39.723 121.521 39.079 123.063 38.497z" data-fill-palette-color="accent"></path><path fill="#f9a826" d="M109.751 45.167l-1.017-1.595c-1.426 0.909-2.842 1.882-4.207 2.89l1.123 1.522C106.982 47 108.362 46.052 109.751 45.167z" data-fill-palette-color="accent"></path><path fill="#f9a826" d="M103.675 49.495l-1.175-1.482c-1.328 1.053-2.638 2.166-3.89 3.307l1.272 1.398C101.105 51.606 102.38 50.521 103.675 49.495z" data-fill-palette-color="accent"></path><polygon fill="#f9a826" points="142.614,37.629 143.952,38.967 148.688,34.23 153.578,39.121 154.917,37.784 150.027,32.893     154.763,28.156 153.424,26.819 148.688,31.556 143.798,26.666 142.459,28.004 147.35,32.893   " data-fill-palette-color="accent"></polygon><path fill="#f9a826" d="M154.156 104.704l-10.5-6.063v5.094H80.197c-0.417-2.371-2.482-4.174-4.973-4.174-2.792 0-5.055 2.264-5.055 5.055 0 2.493 1.807 4.559 4.181 4.974 0.802 18.834 8.587 36.42 22.065 49.728 12.718 12.553 29.181 19.987 46.835 21.255v5.385l10.501-6.062-10.5-6.063v4.84c-36.23-2.731-65.397-32.504-67.008-69.105 1.976-0.404 3.531-1.962 3.934-3.938h63.479v5.14L154.156 104.704z" data-fill-palette-color="accent"></path></g></g></svg></g></svg></g><g></g></svg></g></svg></g><g><path d="M86.08 73.96A122.216 122.216 0 0 1 309.44 73.96L306.543 73.96A119.318 119.318 0 0 0 88.977 73.96L86.08 73.96M86.08 173.24A122.216 122.216 0 0 0 309.44 173.24L306.543 173.24A119.318 119.318 0 0 1 88.977 173.24L86.08 173.24" fill="#f9a826" stroke="transparent" data-fill-palette-color="tertiary"></path></g></svg></g><defs></defs></svg><rect width="395.52" height="247.2" fill="none" stroke="none" visibility="hidden"></rect></g></svg></g></svg>